<svg width="20" height="20" viewBox="0 0 20 20" fill="none" xmlns="http://www.w3.org/2000/svg">
<g id="home outlined 1" clip-path="url(#clip0_1065_957)">
<path id="Vector" d="M15.8333 19.9998H4.16667C1.86917 19.9998 0 18.1307 0 15.8332V8.10318C0 6.71568 0.686667 5.42401 1.83667 4.64901L7.66917 0.712344C9.085 -0.242656 10.915 -0.242656 12.3308 0.712344L18.1642 4.64901C19.3133 5.42401 20 6.71485 20 8.10318V15.8332C20 18.1307 18.1308 19.9998 15.8333 19.9998ZM10 1.66401C9.51333 1.66401 9.02667 1.80734 8.60167 2.09484L2.76833 6.03068C2.07833 6.49568 1.66667 7.26985 1.66667 8.10235V15.8323C1.66667 17.2107 2.78833 18.3323 4.16667 18.3323H15.8333C17.2117 18.3323 18.3333 17.2107 18.3333 15.8323V8.10318C18.3333 7.27068 17.9217 6.49568 17.2325 6.03151L11.3983 2.09484C10.9733 1.80734 10.4867 1.66401 10 1.66401Z" fill="#878787"/>
</g>
<defs>
<clipPath id="clip0_1065_957">
<rect width="20" height="20" fill="white"/>
</clipPath>
</defs>
</svg>
