<svg width="22" height="22" viewBox="0 0 22 22" fill="none" xmlns="http://www.w3.org/2000/svg">
<g clip-path="url(#clip0_1290_1789)">
<path d="M21.434 8.38859C21.434 7.69672 21.1592 7.03319 20.67 6.54396C20.1807 6.05474 19.5172 5.77989 18.8253 5.77989H16.2166C16.2166 4.39615 15.6669 3.06909 14.6885 2.09064C13.71 1.11219 12.383 0.5625 10.9992 0.5625C9.6155 0.5625 8.28843 1.11219 7.30998 2.09064C6.33153 3.06909 5.78184 4.39615 5.78184 5.77989H3.17315C2.48128 5.77989 1.81775 6.05474 1.32852 6.54396C0.839297 7.03319 0.564453 7.69672 0.564453 8.38859L0.564453 17.0842C0.565834 18.2369 1.02435 19.342 1.83943 20.1571C2.6545 20.9722 3.75959 21.4307 4.91228 21.4321H17.0862C18.2389 21.4307 19.344 20.9722 20.159 20.1571C20.9741 19.342 21.4326 18.2369 21.434 17.0842V8.38859ZM7.52098 5.77989C7.52098 4.8574 7.88743 3.97269 8.53973 3.32039C9.19203 2.66809 10.0767 2.30163 10.9992 2.30163C11.9217 2.30163 12.8064 2.66809 13.4587 3.32039C14.111 3.97269 14.4775 4.8574 14.4775 5.77989H7.52098Z" fill="#3D5A80"/>
</g>
<defs>
<clipPath id="clip0_1290_1789">
<rect width="20.8696" height="20.8696" fill="white" transform="translate(0.564453 0.5625)"/>
</clipPath>
</defs>
</svg>
